<mxfile modified="2023-06-14T15:33:04.194Z" host="app.diagrams.net" agent="Mozilla/5.0 (Windows NT 10.0; Win64; x64) AppleWebKit/537.36 (KHTML, like Gecko) Chrome/114.0.0.0 Safari/537.36" etag="3dKAjxHqZIc02vvImOFm" version="21.3.8" type="github">
  <diagram id="Ht1M8jgEwFfnCIfOTk4-" name="Page-1">
    <mxGraphModel dx="1434" dy="800" grid="1" gridSize="10" guides="1" tooltips="1" connect="1" arrows="1" fold="1" page="1" pageScale="1" pageWidth="1169" pageHeight="827" math="0" shadow="0">
      <root>
        <mxCell id="0" />
        <mxCell id="1" parent="0" />
        <mxCell id="s0NfSnUVm99tZ4HxC2Mr-51" style="edgeStyle=orthogonalEdgeStyle;rounded=0;orthogonalLoop=1;jettySize=auto;html=1;" edge="1" parent="1" source="s0NfSnUVm99tZ4HxC2Mr-4" target="s0NfSnUVm99tZ4HxC2Mr-5">
          <mxGeometry relative="1" as="geometry" />
        </mxCell>
        <mxCell id="s0NfSnUVm99tZ4HxC2Mr-4" value="Cliente" style="shape=umlActor;verticalLabelPosition=bottom;verticalAlign=top;html=1;outlineConnect=0;" vertex="1" parent="1">
          <mxGeometry x="240" y="280" width="30" height="60" as="geometry" />
        </mxCell>
        <mxCell id="s0NfSnUVm99tZ4HxC2Mr-13" style="edgeStyle=orthogonalEdgeStyle;rounded=0;orthogonalLoop=1;jettySize=auto;html=1;entryX=0;entryY=0.5;entryDx=0;entryDy=0;entryPerimeter=0;" edge="1" parent="1" source="s0NfSnUVm99tZ4HxC2Mr-5" target="s0NfSnUVm99tZ4HxC2Mr-12">
          <mxGeometry relative="1" as="geometry" />
        </mxCell>
        <mxCell id="s0NfSnUVm99tZ4HxC2Mr-5" value="" style="outlineConnect=0;dashed=0;verticalLabelPosition=bottom;verticalAlign=top;align=center;html=1;shape=mxgraph.aws3.management_console;fillColor=#F58534;gradientColor=none;" vertex="1" parent="1">
          <mxGeometry x="418.5" y="278.5" width="63" height="63" as="geometry" />
        </mxCell>
        <mxCell id="s0NfSnUVm99tZ4HxC2Mr-8" value="Front-end" style="text;html=1;strokeColor=none;fillColor=none;align=center;verticalAlign=middle;whiteSpace=wrap;rounded=0;" vertex="1" parent="1">
          <mxGeometry x="421.5" y="341.5" width="60" height="30" as="geometry" />
        </mxCell>
        <mxCell id="s0NfSnUVm99tZ4HxC2Mr-16" style="edgeStyle=orthogonalEdgeStyle;rounded=0;orthogonalLoop=1;jettySize=auto;html=1;" edge="1" parent="1" source="s0NfSnUVm99tZ4HxC2Mr-12" target="s0NfSnUVm99tZ4HxC2Mr-15">
          <mxGeometry relative="1" as="geometry" />
        </mxCell>
        <mxCell id="s0NfSnUVm99tZ4HxC2Mr-20" style="edgeStyle=orthogonalEdgeStyle;rounded=0;orthogonalLoop=1;jettySize=auto;html=1;" edge="1" parent="1" source="s0NfSnUVm99tZ4HxC2Mr-12">
          <mxGeometry relative="1" as="geometry">
            <mxPoint x="670" y="420" as="targetPoint" />
          </mxGeometry>
        </mxCell>
        <mxCell id="s0NfSnUVm99tZ4HxC2Mr-12" value="" style="sketch=0;points=[[0,0,0],[0.25,0,0],[0.5,0,0],[0.75,0,0],[1,0,0],[0,1,0],[0.25,1,0],[0.5,1,0],[0.75,1,0],[1,1,0],[0,0.25,0],[0,0.5,0],[0,0.75,0],[1,0.25,0],[1,0.5,0],[1,0.75,0]];outlineConnect=0;fontColor=#232F3E;gradientColor=#FF4F8B;gradientDirection=north;fillColor=#BC1356;strokeColor=#ffffff;dashed=0;verticalLabelPosition=bottom;verticalAlign=top;align=center;html=1;fontSize=12;fontStyle=0;aspect=fixed;shape=mxgraph.aws4.resourceIcon;resIcon=mxgraph.aws4.api_gateway;" vertex="1" parent="1">
          <mxGeometry x="560" y="271" width="78" height="78" as="geometry" />
        </mxCell>
        <mxCell id="s0NfSnUVm99tZ4HxC2Mr-14" value="Api-gateway" style="text;html=1;strokeColor=none;fillColor=none;align=center;verticalAlign=middle;whiteSpace=wrap;rounded=0;" vertex="1" parent="1">
          <mxGeometry x="569" y="350" width="60" height="30" as="geometry" />
        </mxCell>
        <mxCell id="s0NfSnUVm99tZ4HxC2Mr-35" style="edgeStyle=orthogonalEdgeStyle;rounded=0;orthogonalLoop=1;jettySize=auto;html=1;" edge="1" parent="1" source="s0NfSnUVm99tZ4HxC2Mr-15">
          <mxGeometry relative="1" as="geometry">
            <mxPoint x="670" y="430" as="targetPoint" />
          </mxGeometry>
        </mxCell>
        <mxCell id="s0NfSnUVm99tZ4HxC2Mr-15" value="" style="outlineConnect=0;dashed=0;verticalLabelPosition=bottom;verticalAlign=top;align=center;html=1;shape=mxgraph.aws3.cognito;fillColor=#AD688B;gradientColor=none;" vertex="1" parent="1">
          <mxGeometry x="720" y="263.5" width="76.5" height="93" as="geometry" />
        </mxCell>
        <mxCell id="s0NfSnUVm99tZ4HxC2Mr-17" value="Cognito" style="text;html=1;strokeColor=none;fillColor=none;align=center;verticalAlign=middle;whiteSpace=wrap;rounded=0;" vertex="1" parent="1">
          <mxGeometry x="728.25" y="356.5" width="60" height="30" as="geometry" />
        </mxCell>
        <mxCell id="s0NfSnUVm99tZ4HxC2Mr-18" value="Chamadas API&#39;s (login/ compra)" style="text;html=1;strokeColor=none;fillColor=none;align=center;verticalAlign=middle;whiteSpace=wrap;rounded=0;" vertex="1" parent="1">
          <mxGeometry x="540" y="241" width="110" height="30" as="geometry" />
        </mxCell>
        <mxCell id="s0NfSnUVm99tZ4HxC2Mr-19" value="Autenticador Login" style="text;html=1;strokeColor=none;fillColor=none;align=center;verticalAlign=middle;whiteSpace=wrap;rounded=0;" vertex="1" parent="1">
          <mxGeometry x="700" y="233.5" width="110" height="30" as="geometry" />
        </mxCell>
        <mxCell id="s0NfSnUVm99tZ4HxC2Mr-41" style="edgeStyle=orthogonalEdgeStyle;rounded=0;orthogonalLoop=1;jettySize=auto;html=1;" edge="1" parent="1" source="s0NfSnUVm99tZ4HxC2Mr-21" target="s0NfSnUVm99tZ4HxC2Mr-4">
          <mxGeometry relative="1" as="geometry" />
        </mxCell>
        <mxCell id="s0NfSnUVm99tZ4HxC2Mr-21" value="" style="outlineConnect=0;dashed=0;verticalLabelPosition=bottom;verticalAlign=top;align=center;html=1;shape=mxgraph.aws3.management_console;fillColor=#F58534;gradientColor=none;" vertex="1" parent="1">
          <mxGeometry x="600" y="430" width="63" height="63" as="geometry" />
        </mxCell>
        <mxCell id="s0NfSnUVm99tZ4HxC2Mr-23" value="Back-end" style="text;html=1;strokeColor=none;fillColor=none;align=center;verticalAlign=middle;whiteSpace=wrap;rounded=0;" vertex="1" parent="1">
          <mxGeometry x="637" y="493" width="60" height="30" as="geometry" />
        </mxCell>
        <mxCell id="s0NfSnUVm99tZ4HxC2Mr-26" style="edgeStyle=orthogonalEdgeStyle;rounded=0;orthogonalLoop=1;jettySize=auto;html=1;entryX=0;entryY=0.5;entryDx=0;entryDy=0;entryPerimeter=0;" edge="1" parent="1" source="s0NfSnUVm99tZ4HxC2Mr-24" target="s0NfSnUVm99tZ4HxC2Mr-27">
          <mxGeometry relative="1" as="geometry">
            <mxPoint x="810" y="461.5" as="targetPoint" />
          </mxGeometry>
        </mxCell>
        <mxCell id="s0NfSnUVm99tZ4HxC2Mr-40" style="edgeStyle=orthogonalEdgeStyle;rounded=0;orthogonalLoop=1;jettySize=auto;html=1;" edge="1" parent="1" source="s0NfSnUVm99tZ4HxC2Mr-24" target="s0NfSnUVm99tZ4HxC2Mr-37">
          <mxGeometry relative="1" as="geometry" />
        </mxCell>
        <mxCell id="s0NfSnUVm99tZ4HxC2Mr-24" value="" style="outlineConnect=0;dashed=0;verticalLabelPosition=bottom;verticalAlign=top;align=center;html=1;shape=mxgraph.aws3.lambda_function;fillColor=#F58534;gradientColor=none;" vertex="1" parent="1">
          <mxGeometry x="680" y="425.5" width="69" height="72" as="geometry" />
        </mxCell>
        <mxCell id="s0NfSnUVm99tZ4HxC2Mr-25" value="gerenciamento das API&#39;s (login/ compra)" style="text;html=1;strokeColor=none;fillColor=none;align=center;verticalAlign=middle;whiteSpace=wrap;rounded=0;" vertex="1" parent="1">
          <mxGeometry x="612" y="523" width="110" height="30" as="geometry" />
        </mxCell>
        <mxCell id="s0NfSnUVm99tZ4HxC2Mr-34" style="edgeStyle=orthogonalEdgeStyle;rounded=0;orthogonalLoop=1;jettySize=auto;html=1;" edge="1" parent="1" source="s0NfSnUVm99tZ4HxC2Mr-27" target="s0NfSnUVm99tZ4HxC2Mr-24">
          <mxGeometry relative="1" as="geometry" />
        </mxCell>
        <mxCell id="s0NfSnUVm99tZ4HxC2Mr-27" value="" style="outlineConnect=0;dashed=0;verticalLabelPosition=bottom;verticalAlign=top;align=center;html=1;shape=mxgraph.aws3.sqs;fillColor=#D9A741;gradientColor=none;" vertex="1" parent="1">
          <mxGeometry x="820" y="415" width="76.5" height="93" as="geometry" />
        </mxCell>
        <mxCell id="s0NfSnUVm99tZ4HxC2Mr-28" value="Algum serviço de gerenciamaneto de fila/ (&quot;SQS&quot;)" style="text;html=1;strokeColor=none;fillColor=none;align=center;verticalAlign=middle;whiteSpace=wrap;rounded=0;" vertex="1" parent="1">
          <mxGeometry x="803.25" y="523" width="110" height="30" as="geometry" />
        </mxCell>
        <mxCell id="s0NfSnUVm99tZ4HxC2Mr-29" value="Sistema de fila para evitar diferenças de latencia" style="text;html=1;strokeColor=none;fillColor=none;align=center;verticalAlign=middle;whiteSpace=wrap;rounded=0;" vertex="1" parent="1">
          <mxGeometry x="810" y="370" width="110" height="44" as="geometry" />
        </mxCell>
        <mxCell id="s0NfSnUVm99tZ4HxC2Mr-37" value="" style="outlineConnect=0;dashed=0;verticalLabelPosition=bottom;verticalAlign=top;align=center;html=1;shape=mxgraph.aws3.rds;fillColor=#2E73B8;gradientColor=none;" vertex="1" parent="1">
          <mxGeometry x="678.5" y="600" width="72" height="81" as="geometry" />
        </mxCell>
        <mxCell id="s0NfSnUVm99tZ4HxC2Mr-38" value="Banco de dados/ (&quot;RDS&quot;)" style="text;html=1;strokeColor=none;fillColor=none;align=center;verticalAlign=middle;whiteSpace=wrap;rounded=0;" vertex="1" parent="1">
          <mxGeometry x="686" y="690" width="60" height="30" as="geometry" />
        </mxCell>
        <mxCell id="s0NfSnUVm99tZ4HxC2Mr-50" value="VPC" style="points=[[0,0],[0.25,0],[0.5,0],[0.75,0],[1,0],[1,0.25],[1,0.5],[1,0.75],[1,1],[0.75,1],[0.5,1],[0.25,1],[0,1],[0,0.75],[0,0.5],[0,0.25]];outlineConnect=0;gradientColor=none;html=1;whiteSpace=wrap;fontSize=12;fontStyle=0;container=1;pointerEvents=0;collapsible=0;recursiveResize=0;shape=mxgraph.aws4.group;grIcon=mxgraph.aws4.group_vpc;strokeColor=#248814;fillColor=none;verticalAlign=top;align=left;spacingLeft=30;fontColor=#AAB7B8;dashed=0;" vertex="1" parent="1">
          <mxGeometry x="340" y="210" width="620" height="560" as="geometry" />
        </mxCell>
        <mxCell id="s0NfSnUVm99tZ4HxC2Mr-53" value="" style="sketch=0;points=[[0,0,0],[0.25,0,0],[0.5,0,0],[0.75,0,0],[1,0,0],[0,1,0],[0.25,1,0],[0.5,1,0],[0.75,1,0],[1,1,0],[0,0.25,0],[0,0.5,0],[0,0.75,0],[1,0.25,0],[1,0.5,0],[1,0.75,0]];outlineConnect=0;fontColor=#232F3E;gradientColor=#60A337;gradientDirection=north;fillColor=#277116;strokeColor=#ffffff;dashed=0;verticalLabelPosition=bottom;verticalAlign=top;align=center;html=1;fontSize=12;fontStyle=0;aspect=fixed;shape=mxgraph.aws4.resourceIcon;resIcon=mxgraph.aws4.s3;" vertex="1" parent="s0NfSnUVm99tZ4HxC2Mr-50">
          <mxGeometry x="229" y="392" width="78" height="78" as="geometry" />
        </mxCell>
        <mxCell id="s0NfSnUVm99tZ4HxC2Mr-54" value="Bucket S3" style="text;html=1;align=center;verticalAlign=middle;resizable=0;points=[];autosize=1;strokeColor=none;fillColor=none;" vertex="1" parent="s0NfSnUVm99tZ4HxC2Mr-50">
          <mxGeometry x="228" y="470" width="80" height="30" as="geometry" />
        </mxCell>
        <mxCell id="s0NfSnUVm99tZ4HxC2Mr-39" value="Persistência de dados/ quantidade de ingressos, compras, etc..." style="text;html=1;strokeColor=none;fillColor=none;align=center;verticalAlign=middle;whiteSpace=wrap;rounded=0;" vertex="1" parent="s0NfSnUVm99tZ4HxC2Mr-50">
          <mxGeometry x="420" y="409" width="110" height="44" as="geometry" />
        </mxCell>
        <mxCell id="s0NfSnUVm99tZ4HxC2Mr-55" value="Ou" style="text;html=1;align=center;verticalAlign=middle;resizable=0;points=[];autosize=1;strokeColor=none;fillColor=none;" vertex="1" parent="s0NfSnUVm99tZ4HxC2Mr-50">
          <mxGeometry x="300" y="423" width="40" height="30" as="geometry" />
        </mxCell>
      </root>
    </mxGraphModel>
  </diagram>
</mxfile>
